<?xml version="1.0" encoding="utf-8"?>
<!-- Generator: Adobe Illustrator 19.0.0, SVG Export Plug-In . SVG Version: 6.00 Build 0)  -->
<svg version="1.1" id="Layer_1" xmlns="http://www.w3.org/2000/svg" xmlns:xlink="http://www.w3.org/1999/xlink" x="0px" y="0px"
	 viewBox="0 68.5 200 65.5" style="enable-background:new 0 68.5 200 65.5;" xml:space="preserve">
<style type="text/css">
	.st0{fill:#FFFFFF;}
</style>
<polygon id="XMLID_202_" class="st0" points="34.5,115.6 34.5,84.4 56,81 56,119 "/>
<polygon id="XMLID_201_" class="st0" points="30.3,84.4 30.3,115.6 8.8,119 8.8,81 "/>
<path id="XMLID_200_" class="st0" d="M98,84.3v1.9H81.5v13.2h14.3v1.9H81.5v14.4h-2.3V84.3H98L98,84.3z"/>
<path id="XMLID_199_" class="st0" d="M119.1,113.8h14.8v1.9h-17.2V84.3h2.2v29.5H119.1z"/>
<path id="XMLID_198_" class="st0" d="M151,115.6h-2.3V84.3h2.3V115.6z"/>
<path id="XMLID_195_" class="st0" d="M173.8,103v12.6h-2.2V84.3h8.1c3.7,0,6.4,0.8,8.3,2.4c1.9,1.7,2.8,3.9,2.8,6.9
	c0,1.3-0.2,2.7-0.8,3.8s-1.2,2.1-2.2,3s-2.1,1.4-3.5,2c-1.3,0.4-2.9,0.7-4.7,0.7L173.8,103L173.8,103z M173.8,101.1h5.9
	c1.4,0,2.7-0.2,3.8-0.6c1.1-0.3,2-0.9,2.8-1.6c0.8-0.7,1.3-1.4,1.8-2.4c0.4-0.9,0.6-1.9,0.6-3c0-2.4-0.8-4.2-2.2-5.5s-3.7-2-6.6-2
	H174v15.1H173.8z"/>
</svg>
