<?xml version="1.0" encoding="utf-8"?>
<!-- Generator: Adobe Illustrator 19.0.0, SVG Export Plug-In . SVG Version: 6.00 Build 0)  -->
<svg version="1.1" id="Layer_1" xmlns="http://www.w3.org/2000/svg" xmlns:xlink="http://www.w3.org/1999/xlink" x="0px" y="0px"
	 viewBox="0 0 200 65.5" style="enable-background:new 0 0 200 65.5;" xml:space="preserve">
<polygon id="XMLID_202_" points="34.5,47.1 34.5,15.9 56,12.5 56,50.5 "/>
<polygon id="XMLID_201_" points="30.3,15.9 30.3,47.1 8.8,50.5 8.8,12.5 "/>
<path id="XMLID_200_" d="M98,15.8v1.9H81.5v13.2h14.3v1.9H81.5v14.4h-2.3V15.8L98,15.8L98,15.8z"/>
<path id="XMLID_199_" d="M119.1,45.3h14.8v1.9h-17.2V15.8h2.2v29.5H119.1z"/>
<path id="XMLID_198_" d="M151,47.1h-2.3V15.8h2.3V47.1z"/>
<path id="XMLID_195_" d="M173.8,34.5v12.6h-2.2V15.8h8.1c3.7,0,6.4,0.8,8.3,2.4c1.9,1.7,2.8,3.9,2.8,6.9c0,1.3-0.2,2.7-0.8,3.8
	c-0.6,1.1-1.2,2.1-2.2,3c-1,0.9-2.1,1.4-3.5,2c-1.3,0.4-2.9,0.7-4.7,0.7L173.8,34.5L173.8,34.5z M173.8,32.6h5.9
	c1.4,0,2.7-0.2,3.8-0.6c1.1-0.3,2-0.9,2.8-1.6s1.3-1.4,1.8-2.4c0.4-0.9,0.6-1.9,0.6-3c0-2.4-0.8-4.2-2.2-5.5c-1.4-1.3-3.7-2-6.6-2
	h-5.9V32.6z"/>
</svg>
